# xmcd CD database file
#
# Track frame offsets:
#	150
#	12552
#	26698
#	36657
#	47645
#	57539
#	67343
#	79020
#	90735
#	110796
#	126856
#	138796
#
# Disc length: 2036 seconds
#
# Revision: 0
# Processed by: cddbd v1.5.2PL0 Copyright (c) Steve Scherf et al.
# Submitted via: CDex 1.51
#
DISCID=b207f20c
DTITLE=The Ramones - Subterrean Jungle
DYEAR=1983
DGENRE=New Age
TTITLE0=1-Little Bit 'o Soul
TTITLE1=2-I Need Your Love
TTITLE2=3-Outsider
TTITLE3=4-What'd Ya Do
TTITLE4=5-Higest Trails Above
TTITLE5=11-Time Bomb
TTITLE6=6-Somebody Like Me
TTITLE7=7-Psycho Therapy
TTITLE8=8-Time Has Come Today
TTITLE9=9-My-My Kind of a Girl
TTITLE10=10-In the Park
TTITLE11=12-Everytime I Eat Vegetables It Make Me Think of
EXTD=YEAR: 1983
EXTT0=
EXTT1=
EXTT2=
EXTT3=
EXTT4=
EXTT5=
EXTT6=
EXTT7=
EXTT8=
EXTT9=
EXTT10=
EXTT11=
PLAYORDER=
